<?xml version="1.0" encoding="UTF-8" standalone="no"?>
<svg
   xmlns:dc="http://purl.org/dc/elements/1.1/"
   xmlns:cc="http://creativecommons.org/ns#"
   xmlns:rdf="http://www.w3.org/1999/02/22-rdf-syntax-ns#"
   xmlns:svg="http://www.w3.org/2000/svg"
   xmlns="http://www.w3.org/2000/svg"
   xmlns:sodipodi="http://sodipodi.sourceforge.net/DTD/sodipodi-0.dtd"
   xmlns:inkscape="http://www.inkscape.org/namespaces/inkscape"
   width="1000px"
   height="1000px"
   viewBox="0 0 1000 1000"
   version="1.1"
   id="SVGRoot"
   sodipodi:docname="рисунок.svg"
   inkscape:version="1.0.1 (3bc2e813f5, 2020-09-07)"
   inkscape:export-filename="C:\Users\Trustleaks\Desktop\рисунок.png"
   inkscape:export-xdpi="96"
   inkscape:export-ydpi="96">
  <defs
     id="defs833">
    <filter
       style="color-interpolation-filters:sRGB;"
       inkscape:menu-tooltip="Fades hue progressively to white"
       inkscape:menu="Color"
       inkscape:label="Nudge RGB"
       id="filter922">
      <feColorMatrix
         values="1 0 0 0 0 1 0 0 0 0 1 0 0 0 0 0 0 0 0 1 "
         type="matrix"
         result="r"
         in="SourceGraphic"
         id="feColorMatrix894" />
      <feColorMatrix
         values="0 1 0 0 0 0 1 0 0 0 0 1 0 0 0 0 0 0 0 1 "
         type="matrix"
         result="g"
         in="SourceGraphic"
         id="feColorMatrix896" />
      <feColorMatrix
         values="0 0 1 0 0 0 0 1 0 0 0 0 1 0 0 0 0 0 0 1 "
         type="matrix"
         result="b"
         in="SourceGraphic"
         id="feColorMatrix898" />
      <feBlend
         result="minrg"
         in="r"
         mode="darken"
         in2="g"
         id="feBlend900" />
      <feBlend
         result="p"
         in="minrg"
         mode="darken"
         in2="b"
         id="feBlend902" />
      <feBlend
         result="maxrg"
         in="r"
         mode="lighten"
         in2="g"
         id="feBlend904" />
      <feBlend
         result="q"
         in="maxrg"
         mode="lighten"
         in2="b"
         id="feBlend906" />
      <feComponentTransfer
         result="q2"
         in="q"
         id="feComponentTransfer910">
        <feFuncR
           slope="0"
           type="linear"
           id="feFuncR908" />
      </feComponentTransfer>
      <feBlend
         result="pq"
         in="p"
         mode="lighten"
         in2="q2"
         id="feBlend912" />
      <feColorMatrix
         values="-1 1 0 0 0 -1 1 0 0 0 -1 1 0 0 0 0 0 0 0 1 "
         type="matrix"
         result="qminp"
         in="pq"
         id="feColorMatrix914" />
      <feComposite
         k3="1"
         operator="arithmetic"
         result="qminpc"
         in="qminp"
         in2="qminp"
         id="feComposite916" />
      <feBlend
         result="result2"
         in2="SourceGraphic"
         mode="screen"
         id="feBlend918" />
      <feComposite
         operator="in"
         in="result2"
         in2="SourceGraphic"
         result="fbSourceGraphic"
         id="feComposite920" />
      <feColorMatrix
         result="fbSourceGraphicAlpha"
         in="fbSourceGraphic"
         values="0 0 0 -1 0 0 0 0 -1 0 0 0 0 -1 0 0 0 0 1 0"
         id="feColorMatrix924" />
      <feColorMatrix
         id="feColorMatrix926"
         values="1 0 0 0 0 0 1 0 0 0 0 0 1 0 0 0 0 0 1 0"
         in="fbSourceGraphic"
         result="fbSourceGraphic" />
      <feColorMatrix
         result="fbSourceGraphicAlpha"
         in="fbSourceGraphic"
         values="0 0 0 -1 0 0 0 0 -1 0 0 0 0 -1 0 0 0 0 1 0"
         id="feColorMatrix928" />
      <feColorMatrix
         id="feColorMatrix930"
         values="1 0 0 0 0 0 1 0 0 0 0 0 1 0 0 0 0 0 1 0"
         in="fbSourceGraphic"
         result="fbSourceGraphic" />
      <feColorMatrix
         result="fbSourceGraphicAlpha"
         in="fbSourceGraphic"
         values="0 0 0 -1 0 0 0 0 -1 0 0 0 0 -1 0 0 0 0 1 0"
         id="feColorMatrix932" />
      <feFlood
         id="feFlood934"
         flood-opacity="1"
         flood-color="rgb(0,0,0)"
         result="flood"
         in="fbSourceGraphic" />
      <feColorMatrix
         id="feColorMatrix936"
         in="fbSourceGraphic"
         values="0 0 0 0 1 0 0 0 0 0 0 0 0 0 0 1 0 0 0 0 "
         result="colormatrix1" />
      <feOffset
         id="feOffset938"
         dy="-100"
         dx="-100"
         result="offset1" />
      <feBlend
         in2="flood"
         id="feBlend940"
         mode="screen"
         result="blend1" />
      <feColorMatrix
         id="feColorMatrix942"
         in="fbSourceGraphic"
         values="0 0 0 0 0 0 0 0 0 1 0 0 0 0 0 0 1 0 0 0 "
         result="colormatrix2" />
      <feOffset
         id="feOffset944"
         dy="-100"
         dx="-100"
         result="offset2" />
      <feBlend
         in2="blend1"
         id="feBlend946"
         mode="screen"
         result="blend2" />
      <feOffset
         id="feOffset948"
         dy="-100"
         dx="-100"
         result="offset3" />
      <feColorMatrix
         id="feColorMatrix950"
         in="fbSourceGraphic"
         values="0 0 0 0 0 0 0 0 0 0 0 0 0 0 1 0 0 1 0 0 "
         result="colormatrix3" />
      <feBlend
         in2="offset3"
         id="feBlend952"
         mode="screen"
         result="blend3" />
    </filter>
  </defs>
  <sodipodi:namedview
     id="base"
     pagecolor="#ffffff"
     bordercolor="#666666"
     borderopacity="1.0"
     inkscape:pageopacity="0.0"
     inkscape:pageshadow="2"
     inkscape:zoom="0.70710678"
     inkscape:cx="527.95914"
     inkscape:cy="451.81575"
     inkscape:document-units="px"
     inkscape:current-layer="g989"
     inkscape:document-rotation="0"
     showgrid="false"
     inkscape:window-width="1920"
     inkscape:window-height="1051"
     inkscape:window-x="-9"
     inkscape:window-y="-9"
     inkscape:window-maximized="1" />
  <metadata
     id="metadata836">
    <rdf:RDF>
      <cc:Work
         rdf:about="">
        <dc:format>image/svg+xml</dc:format>
        <dc:type
           rdf:resource="http://purl.org/dc/dcmitype/StillImage" />
        <dc:title />
      </cc:Work>
    </rdf:RDF>
  </metadata>
  <g
     inkscape:label="Слой 1"
     inkscape:groupmode="layer"
     id="layer1">
    <g
       id="g989"
       transform="translate(-0.25252734,7.5081595)">
      <path
         id="rect1409"
         style="opacity:1;fill:#ffffff;fill-opacity:0.9287926;stroke:#000000;stroke-width:20;stroke-linecap:butt;stroke-linejoin:round;stroke-miterlimit:5;stroke-dasharray:none;stroke-opacity:0.768953;paint-order:fill markers stroke"
         d="m 193.33095,117.41846 h 422.52842 l 92.81798,92.63099 92.27744,92.51305 V 863.81189 H 193.33095 Z"
         sodipodi:nodetypes="ccccccc" />
      <path
         id="path1572"
         style="color:#000000;font-style:normal;font-variant:normal;font-weight:normal;font-stretch:normal;font-size:medium;line-height:normal;font-family:sans-serif;font-variant-ligatures:normal;font-variant-position:normal;font-variant-caps:normal;font-variant-numeric:normal;font-variant-alternates:normal;font-variant-east-asian:normal;font-feature-settings:normal;font-variation-settings:normal;text-indent:0;text-align:start;text-decoration:none;text-decoration-line:none;text-decoration-style:solid;text-decoration-color:#000000;letter-spacing:normal;word-spacing:normal;text-transform:none;writing-mode:lr-tb;direction:ltr;text-orientation:mixed;dominant-baseline:auto;baseline-shift:baseline;text-anchor:start;white-space:normal;shape-padding:0;shape-margin:0;inline-size:0;clip-rule:nonzero;display:inline;overflow:visible;visibility:visible;opacity:1;isolation:auto;mix-blend-mode:normal;color-interpolation:sRGB;color-interpolation-filters:linearRGB;solid-color:#000000;solid-opacity:1;vector-effect:none;fill:#000000;fill-opacity:0.768953;fill-rule:nonzero;stroke:none;stroke-width:0.6;stroke-linecap:butt;stroke-linejoin:round;stroke-miterlimit:5;stroke-dasharray:none;stroke-dashoffset:0;stroke-opacity:0.768953;paint-order:normal;color-rendering:auto;image-rendering:auto;shape-rendering:auto;text-rendering:auto;enable-background:accumulate;stop-color:#000000;stop-opacity:1"
         d="m 591.83789,147.94531 v 0 l -0.004,178.57031 h 178.08008 c 5.11654,-3.60262 7.30214,-7.05099 7.11581,-10.37452 -0.18633,-3.32352 -2.74459,-6.52221 -7.11581,-9.62548 H 611.83398 V 147.94531 c -6.01854,-7.43842 -12.64445,-7.89214 -19.99609,0 z"
         sodipodi:nodetypes="ccccscccc" />
    </g>
    <g
       id="g1563"
       transform="translate(-0.19567,-0.02037)">
      <g
         id="g1568">
        <g
           id="g1576" />
      </g>
    </g>
    <g
       id="g962"
       transform="matrix(0.89263795,0,0,0.88804124,53.391908,55.923088)"
       style="opacity:1">
      <path
         style="fill:#d0d0d0;fill-opacity:1;stroke-width:0.839844"
         d="m 483.16562,688.1508 c -25.45485,-3.95525 -45.37214,-12.38317 -55.95994,-23.67923 -5.42384,-5.78666 -7.97697,-10.15018 -9.68904,-16.55946 -1.76151,-6.5944 -1.63566,-98.11175 0.14432,-104.94557 3.78752,-14.54125 15.39228,-26.94087 29.66234,-31.69403 5.45804,-1.818 6.79639,-1.8718 58.91498,-2.36842 40.03248,-0.38147 54.16772,-0.77799 56.68945,-1.59027 8.36373,-2.69405 16.78961,-7.95418 23.58948,-14.72649 7.42978,-7.39968 11.64313,-14.14798 14.71105,-23.56194 1.77808,-5.45606 1.93922,-7.6458 2.24043,-30.44434 l 0.32455,-24.56543 h 18.29539 c 20.59867,0 25.09385,0.58828 32.61692,4.26854 15.62995,7.6461 24.29374,25.48468 30.96618,63.75881 2.31732,13.29249 2.10849,38.51999 -0.41588,50.24121 -4.37531,20.31547 -13.62025,41.83319 -21.49422,50.02806 -5.98623,6.23021 -12.92954,9.51819 -22.3987,10.60685 -3.93291,0.45216 -35.72584,0.81317 -71.92641,0.81672 l -64.87793,0.006 v 13.4375 13.4375 h 44.0918 44.0918 v 10.45671 c 0,5.75119 -0.42175,12.45944 -0.93722,14.90722 -4.58095,21.75347 -27.8344,36.33293 -67.29415,42.19214 -10.81184,1.6054 -30.93907,1.59447 -41.3452,-0.0224 z m 69.06962,-20.12253 c 4.15005,-1.734 6.8088,-4.29268 8.68523,-8.35835 1.96997,-4.26833 1.96839,-8.33559 -0.005,-12.59765 -4.02386,-8.69112 -13.11156,-12.04098 -21.5645,-7.94898 -7.05067,3.41317 -10.41287,12.1901 -7.54565,19.69779 1.52144,3.98383 6.90152,9.31718 10.01416,9.92717 3.90297,0.76488 7.44844,0.5198 10.41564,-0.71998 z M 351.1358,579.38201 c -13.96954,-2.3322 -25.61099,-12.21371 -33.12132,-28.11412 -8.45832,-17.90744 -13.6477,-54.83286 -10.86568,-77.31562 1.42479,-11.51442 4.67895,-27.21579 7.22507,-34.86109 5.71392,-17.15737 18.42638,-30.12479 35.0534,-35.75644 l 6.8989,-2.33669 66.1377,-0.23894 66.13769,-0.23893 V 387.11165 373.70312 H 444.3848 400.16802 l 0.50742,-15.32714 c 0.54644,-16.50627 1.43608,-21.27746 5.28651,-28.35196 5.97747,-10.98259 20.20835,-17.49914 47.14091,-21.5866 15.39127,-2.33588 58.51911,-2.12269 74.28925,0.36723 6.65325,1.05047 13.9056,2.77495 17.2168,4.09386 16.93091,6.74387 28.58067,19.44072 31.8081,34.667 1.75382,8.27415 1.71115,92.91196 -0.0511,101.23009 -3.21871,15.19342 -13.61755,27.50411 -28.31925,33.52584 -4.33997,1.77763 -5.58277,1.827 -57.76548,2.29464 -59.00766,0.5288 -57.42117,0.38632 -69.2871,6.22259 -10.81238,5.31807 -19.8999,14.4056 -25.21798,25.21797 -5.14499,10.46047 -5.59356,13.43041 -6.05694,40.10254 l -0.41946,24.14551 -16.90671,-0.0982 c -9.29869,-0.054 -18.86444,-0.42503 -21.25723,-0.8245 z m 97.56378,-224.51126 c 9.25543,-7.05946 7.90905,-21.73109 -2.49047,-27.13888 -3.23948,-1.68455 -10.27019,-1.66542 -13.5621,0.0369 -11.46938,5.93104 -11.61817,22.5746 -0.25527,28.55301 4.44792,2.3402 12.24711,1.64625 16.30784,-1.45102 z"
         id="path972" />
      <g
         id="g975"
         style="fill:#000000;fill-opacity:0">
        <path
           style="fill:#000000;fill-opacity:0;stroke-width:0.839844"
           d="m 489.86133,688.63167 c -18.83488,-2.00119 -38.41656,-7.92637 -51.10779,-15.46459 -7.02899,-4.17501 -16.00474,-13.47296 -18.70965,-19.38125 -3.55786,-7.77141 -3.76108,-11.33826 -3.47954,-61.07462 0.26338,-46.52986 0.29649,-47.33686 2.14261,-52.23199 5.10743,-13.54281 14.90282,-23.66659 27.48249,-28.40387 4.98869,-1.87864 5.5722,-1.90199 58.36914,-2.33517 l 53.33008,-0.43757 6.89891,-2.31905 c 17.57275,-5.90704 31.7693,-20.76272 36.95672,-38.67259 1.79109,-6.18379 1.91586,-8.14311 1.91586,-30.08587 v -23.47132 l 22.04589,0.26081 22.0459,0.2608 5.87891,2.8659 c 15.29353,7.45542 23.97224,23.74231 30.23087,56.73271 3.97858,20.97183 4.25679,41.1048 0.80395,58.17716 -1.90843,9.43613 -7.44072,25.38683 -12.16556,35.07579 -4.72935,9.69823 -10.49998,16.66281 -16.52198,19.9404 -9.01578,4.907 -7.77751,4.83499 -83.14873,4.83499 h -69.11066 v 13.85743 13.85742 h 44.16406 44.16405 l -0.28222,13.69533 -0.28222,13.69533 -3.14117,6.35141 c -7.52646,15.21843 -25.97424,26.02696 -54.06931,31.67914 -16.08916,3.23683 -30.45719,4.07582 -44.41061,2.59327 z m 62.14844,-19.899 c 0.92382,-0.24164 2.91144,-1.3622 4.41693,-2.49013 8.00152,-5.99486 8.10995,-19.10622 0.21296,-25.75111 -2.424,-2.03965 -7.24711,-3.90785 -10.08888,-3.90785 -5.74314,0 -13.43731,5.3986 -15.16798,10.6426 -3.19469,9.68001 1.55123,19.30597 10.70999,21.72263 3.73675,0.98599 5.46498,0.94833 9.91698,-0.21614 z M 346.6218,577.88155 c -12.5506,-4.01636 -20.94066,-11.76417 -27.64908,-25.53262 -4.43496,-9.10236 -7.75061,-21.18002 -10.65491,-38.81182 -4.18314,-25.39552 0.10885,-62.16011 9.55944,-81.88477 6.83028,-14.25572 19.2382,-24.56233 35.08955,-29.14705 4.55308,-1.31689 11.37707,-1.48336 70.75683,-1.72599 l 65.71778,-0.26852 v -13.40383 -13.40383 h -44.0918 -44.0918 v -14.236 c 0,-7.8298 0.42123,-16.23874 0.93608,-18.68652 3.90262,-18.55471 18.47584,-27.53 52.394,-32.26816 15.30742,-2.13835 53.3118,-2.14045 68.72547,-0.004 13.84775,1.91959 18.94462,3.24475 26.17687,6.80585 11.61691,5.72006 20.71614,15.00651 24.93294,25.44595 l 1.94206,4.8079 0.23526,50.71856 c 0.20722,44.67267 0.0735,51.27492 -1.12153,55.38578 -4.313,14.83617 -13.8525,24.95417 -29.28826,31.06435 -2.97191,1.17642 -10.45085,1.41444 -57.16922,1.81946 l -53.75,0.46598 -6.71875,2.2616 c -16.98395,5.71697 -31.04847,19.99014 -36.62765,37.17099 -1.76904,5.4477 -1.93286,7.68074 -2.23361,30.44433 l -0.32455,24.56543 -19.03991,-0.0452 c -15.84898,-0.0376 -19.82176,-0.29537 -23.70521,-1.53812 z m 96.89761,-220.19603 c 4.17737,-1.15999 9.453,-5.97506 10.70585,-9.77123 2.44459,-7.4072 -0.01,-15.03572 -6.22252,-19.34122 -2.77213,-1.92109 -4.24075,-2.32112 -8.52156,-2.32112 -4.23696,0 -5.80353,0.41779 -8.66361,2.31051 -11.54288,7.63871 -8.73791,25.14835 4.67567,29.18723 3.20269,0.96435 4.35545,0.95513 8.02617,-0.0642 z"
           id="path968" />
      </g>
      <g
         id="g1001"
         style="fill:#000000;fill-opacity:0.76999998">
        <g
           id="g996"
           style="fill:#000000;fill-opacity:0.76999998">
          <path
             style="fill:#000000;fill-opacity:0.76999998;stroke-width:0.839844"
             d="m 485.05306,688.19764 c -37.84777,-5.16051 -62.92715,-20.54719 -67.77425,-41.5808 -1.09955,-4.77137 -1.20714,-94.71778 -0.12017,-100.4494 2.89429,-15.26149 13.5728,-28.08012 28.3252,-34.00192 l 4.90483,-1.96886 53.33008,-0.50504 c 58.87645,-0.55756 56.78204,-0.3686 68.44727,-6.17519 14.58531,-7.26011 25.75911,-21.15436 29.83796,-37.10252 1.45005,-5.66962 1.65618,-9.33331 1.65618,-29.43692 v -22.96137 l 17.42675,0.007 c 9.58472,0.003 19.87597,0.40372 22.86945,0.88938 21.96932,3.56433 33.99159,22.82666 41.32525,66.21222 2.32802,13.7724 2.51033,36.22646 0.38753,47.72874 -2.8218,15.28985 -9.46237,34.27118 -15.68006,44.81973 -4.24093,7.19489 -11.9399,14.31522 -18.21883,16.84953 l -4.85814,1.96048 -71.17676,0.22836 -71.17676,0.22835 v 13.83903 13.83903 h 44.0918 44.0918 l -0.026,8.18847 c -0.0601,19.00252 -2.9531,27.84339 -11.98838,36.63696 -9.0009,8.76012 -20.54402,14.40077 -39.09409,19.1037 -18.80112,4.76658 -38.89231,6.06313 -56.58072,3.65132 z m 70.07206,-21.33978 c 11.93544,-8.1783 8.50844,-26.25396 -5.57996,-29.43141 -13.52756,-3.05096 -24.05611,13.17802 -16.22566,25.01065 4.50982,6.81479 15.16051,8.97406 21.80562,4.42076 z m -201.7384,-87.4387 c -10.46366,-1.27421 -17.88316,-5.18584 -25.55587,-13.47327 -8.59219,-9.2806 -13.0634,-19.65538 -17.21328,-39.94092 -4.88996,-23.9032 -5.4158,-42.13317 -1.80311,-62.51101 5.82658,-32.86561 14.13368,-47.17861 32.87285,-56.63939 11.92198,-6.019 8.21024,-5.74345 81.6164,-6.05906 l 66.1377,-0.28435 v -13.40402 -13.40402 h -44.63963 -44.63963 l 0.5822,-15.0727 c 0.80867,-20.93548 2.80157,-27.6915 10.32553,-35.00395 8.5874,-8.346 26.37343,-13.74055 53.59614,-16.25585 20.59353,-1.90278 53.57364,-0.50291 70.96679,3.01224 3.47281,0.70186 9.69006,2.91686 13.85742,4.93694 12.83087,6.21962 21.50707,15.64168 25.77337,27.98901 l 1.94148,5.61892 v 49.55079 49.55078 l -1.95281,5.45898 c -4.99063,13.95112 -14.4738,23.8567 -27.56904,28.79706 -4.82149,1.81897 -5.89172,1.86193 -58.24182,2.33812 -58.4323,0.5315 -57.38664,0.44236 -67.97448,5.79456 -11.32404,5.72435 -19.70272,13.97903 -25.5975,25.2187 -5.2609,10.03102 -5.70229,12.91339 -6.14107,40.10254 l -0.39643,24.56543 -15.24311,-0.11038 c -8.38372,-0.0607 -17.69966,-0.40952 -20.7021,-0.77515 z m 92.56355,-222.49287 c 1.41947,-0.0473 6.88341,-5.68061 7.92288,-8.16842 1.35942,-3.25357 1.47572,-9.31613 0.24139,-12.58308 -1.97514,-5.22764 -9.16995,-10.28462 -14.6889,-10.32431 -1.41053,-0.0102 -4.53392,0.96291 -6.94089,2.16235 -10.07767,5.02192 -11.86737,18.30556 -3.48642,25.87725 4.10153,3.70548 8.25371,4.85366 13.41183,3.70871 1.6167,-0.35886 3.20974,-0.66148 3.54011,-0.6725 z"
             id="path970" />
        </g>
        <path
           style="fill:#000000;fill-opacity:0;stroke-width:0.839844"
           d="m 347.59569,578.13577 c -15.25418,-4.10207 -27.27351,-17.63671 -33.1273,-37.30374 -7.50947,-25.22961 -9.62226,-53.1799 -5.7136,-75.58594 4.74627,-27.20762 8.93391,-37.40875 19.83479,-48.31781 5.00583,-5.00958 8.3615,-7.54003 13.03933,-9.83272 12.57367,-6.16262 9.73951,-5.94634 82.51464,-6.29687 l 65.29786,-0.31451 v -13.39053 -13.39053 h -44.0918 -44.0918 l 0.0146,-13.64746 c 0.0161,-15.07056 1.13996,-22.34751 4.46463,-28.90844 5.96969,-11.78062 21.62287,-18.87976 49.69071,-22.5361 29.65124,-3.8626 71.40214,-1.69277 88.69387,4.60951 12.27353,4.4733 22.19757,12.62856 27.51677,22.61243 5.16236,9.68947 5.12588,9.24837 5.13681,62.10431 0.009,41.24654 -0.18125,48.91145 -1.3205,53.33008 -4.19126,16.25591 -18.18574,29.469 -34.30717,32.39163 -3.17328,0.57528 -22.54402,0.90872 -53.33008,0.918 -54.52025,0.0165 -55.09587,0.0681 -67.18917,6.02614 -10.15281,5.00205 -20.0855,14.93474 -25.08755,25.08755 -5.3702,10.90011 -6.00924,15.28058 -6.02614,41.30825 l -0.0146,22.46582 -18.68652,-0.0553 c -13.53667,-0.0401 -19.93531,-0.39109 -23.21779,-1.2738 z M 448.09181,355.67734 c 12.4439,-8.23499 7.82456,-27.97343 -6.9359,-29.63715 -10.41124,-1.1735 -19.34487,8.2299 -17.68435,18.61426 1.85692,11.61255 14.90297,17.45347 24.62025,11.02289 z"
           id="path966" />
      </g>
      <path
         style="fill:#000000;fill-opacity:0;stroke-width:0.839844"
         d="m 350.11832,578.55647 c -4.93283,-0.96875 -13.13954,-4.93037 -17.4578,-8.42738 -10.02469,-8.11818 -17.03957,-21.97904 -21.20262,-41.89472 -4.14866,-19.84683 -5.31473,-33.4118 -4.17405,-48.55684 0.82775,-10.99008 4.73892,-32.1085 7.35457,-39.711 6.65104,-19.33158 20.08771,-32.20369 38.54325,-36.92383 6.01215,-1.53765 9.83404,-1.62473 71.30619,-1.62473 h 64.95355 v -13.85742 -13.85743 h -44.0918 -44.0918 l 0.0146,-13.22753 c 0.0219,-19.84653 2.422,-28.7259 9.74379,-36.04769 11.10446,-11.10447 38.82103,-17.40022 76.74553,-17.43257 30.53633,-0.026 49.12382,2.60962 61.85218,8.77049 13.31525,6.44496 23.55054,18.82159 26.24317,31.73353 0.61355,2.94221 0.92388,20.16217 0.91568,50.81054 -0.0137,50.95728 -0.11316,52.16357 -5.12177,62.08557 -5.00626,9.91734 -15.84901,18.91189 -27.1998,22.56343 -2.52484,0.81224 -16.71211,1.20055 -57.10938,1.5631 l -53.75,0.48237 -6.88262,2.64304 c -16.29023,6.25571 -27.91389,17.88574 -34.10555,34.12428 l -2.62431,6.88262 -0.30453,25.40527 -0.30452,25.40527 -17.78182,-0.092 c -9.78002,-0.0506 -19.44158,-0.41796 -21.47016,-0.81635 z M 446.2242,357.00731 c 5.88428,-2.67285 9.60605,-8.73607 9.61877,-15.67018 0.007,-3.688 -3.27155,-9.54843 -7.00198,-12.51696 -2.92804,-2.33002 -3.79057,-2.56822 -9.29982,-2.56822 -5.02168,0 -6.57812,0.3465 -8.99481,2.00244 -9.15451,6.27278 -9.84632,19.27636 -1.40972,26.49778 1.86518,1.59652 4.19751,3.06077 5.18296,3.25389 4.19361,0.82184 8.73546,0.4408 11.9046,-0.99875 z"
         id="path964" />
    </g>
    <path
       style="fill:#000000;stroke-width:0.839844"
       id="path864"
       d="" />
    <text
       xml:space="preserve"
       style="font-size:266.667px;line-height:1.25;font-family:'Champagne &amp; Limousines';-inkscape-font-specification:'Champagne &amp; Limousines';fill:#000000;fill-opacity:0.768627"
       x="296.6297"
       y="833"
       id="text993"><tspan
         sodipodi:role="line"
         id="tspan991"
         x="296.6297"
         y="833"
         style="font-style:normal;font-variant:normal;font-weight:bold;font-stretch:normal;font-size:266.667px;font-family:'Champagne &amp; Limousines';-inkscape-font-specification:'Champagne &amp; Limousines Bold';fill:#000000;fill-opacity:0.768627">text</tspan></text>
  </g>
</svg>
